<mxfile host="app.diagrams.net" modified="2024-06-12T14:39:57.175Z" agent="Mozilla/5.0 (Windows NT 10.0; Win64; x64) AppleWebKit/537.36 (KHTML, like Gecko) Chrome/125.0.0.0 Safari/537.36" etag="IUDDMYoTiet9dS5IJS7g" version="24.5.3" type="google">
  <diagram name="Nurse" id="deUWpWaR0TrfYdmWdzV7">
    <mxGraphModel grid="1" page="1" gridSize="10" guides="1" tooltips="1" connect="1" arrows="1" fold="1" pageScale="1" pageWidth="200000" pageHeight="200000" math="0" shadow="0">
      <root>
        <mxCell id="jUOf76TEXTjD7ETVh94k-0" />
        <mxCell id="jUOf76TEXTjD7ETVh94k-1" parent="jUOf76TEXTjD7ETVh94k-0" />
        <mxCell id="jUOf76TEXTjD7ETVh94k-2" value="&lt;font style=&quot;vertical-align: inherit;&quot;&gt;&lt;font style=&quot;vertical-align: inherit;&quot;&gt;ENFERMERO&lt;/font&gt;&lt;/font&gt;" style="shape=umlActor;verticalLabelPosition=bottom;verticalAlign=top;html=1;" vertex="1" parent="jUOf76TEXTjD7ETVh94k-1">
          <mxGeometry x="40" y="335" width="30" height="60" as="geometry" />
        </mxCell>
        <mxCell id="jUOf76TEXTjD7ETVh94k-3" value="CU2:Inicio Sesion" style="ellipse;whiteSpace=wrap;html=1;" vertex="1" parent="jUOf76TEXTjD7ETVh94k-1">
          <mxGeometry x="170" y="347.5" width="70" height="45" as="geometry" />
        </mxCell>
        <mxCell id="jUOf76TEXTjD7ETVh94k-7" value="CU3:Solicitud Citas" style="ellipse;whiteSpace=wrap;html=1;" vertex="1" parent="jUOf76TEXTjD7ETVh94k-1">
          <mxGeometry x="280" y="352.5" width="80" height="40" as="geometry" />
        </mxCell>
        <mxCell id="jUOf76TEXTjD7ETVh94k-8" value="CU5: Solicitud examenes" style="ellipse;whiteSpace=wrap;html=1;" vertex="1" parent="jUOf76TEXTjD7ETVh94k-1">
          <mxGeometry x="280" y="420" width="80" height="40" as="geometry" />
        </mxCell>
        <mxCell id="jUOf76TEXTjD7ETVh94k-10" value="Extends" style="endArrow=block;endSize=16;endFill=0;html=1;rounded=0;" edge="1" parent="jUOf76TEXTjD7ETVh94k-1">
          <mxGeometry width="160" relative="1" as="geometry">
            <mxPoint x="70" y="370" as="sourcePoint" />
            <mxPoint x="170" y="370" as="targetPoint" />
          </mxGeometry>
        </mxCell>
        <mxCell id="jUOf76TEXTjD7ETVh94k-11" value="Use" style="endArrow=open;endSize=12;dashed=1;html=1;rounded=0;" edge="1" parent="jUOf76TEXTjD7ETVh94k-1" source="jUOf76TEXTjD7ETVh94k-3">
          <mxGeometry width="160" relative="1" as="geometry">
            <mxPoint x="240" y="370" as="sourcePoint" />
            <mxPoint x="280" y="370" as="targetPoint" />
          </mxGeometry>
        </mxCell>
        <mxCell id="jUOf76TEXTjD7ETVh94k-13" value="Use" style="endArrow=open;endSize=12;dashed=1;html=1;rounded=0;exitX=0.94;exitY=0.797;exitDx=0;exitDy=0;exitPerimeter=0;entryX=0.258;entryY=0.136;entryDx=0;entryDy=0;entryPerimeter=0;" edge="1" parent="jUOf76TEXTjD7ETVh94k-1" source="jUOf76TEXTjD7ETVh94k-3" target="jUOf76TEXTjD7ETVh94k-8">
          <mxGeometry width="160" relative="1" as="geometry">
            <mxPoint x="220" y="400" as="sourcePoint" />
            <mxPoint x="280" y="440" as="targetPoint" />
          </mxGeometry>
        </mxCell>
        <mxCell id="jUOf76TEXTjD7ETVh94k-16" value="Extends" style="endArrow=block;endSize=16;endFill=0;html=1;rounded=0;" edge="1" parent="jUOf76TEXTjD7ETVh94k-1" source="jUOf76TEXTjD7ETVh94k-7" target="jUOf76TEXTjD7ETVh94k-27">
          <mxGeometry width="160" relative="1" as="geometry">
            <mxPoint x="360" y="372.5" as="sourcePoint" />
            <mxPoint x="430.015617679594" y="370.6248047790051" as="targetPoint" />
          </mxGeometry>
        </mxCell>
        <mxCell id="jUOf76TEXTjD7ETVh94k-21" value="CU9:Bases de datos" style="ellipse;whiteSpace=wrap;html=1;" vertex="1" parent="jUOf76TEXTjD7ETVh94k-1">
          <mxGeometry x="200" y="470" width="90" height="70" as="geometry" />
        </mxCell>
        <mxCell id="jUOf76TEXTjD7ETVh94k-22" value="Use" style="endArrow=open;endSize=12;dashed=1;html=1;rounded=0;" edge="1" parent="jUOf76TEXTjD7ETVh94k-1" source="jUOf76TEXTjD7ETVh94k-3" target="jUOf76TEXTjD7ETVh94k-21">
          <mxGeometry width="160" relative="1" as="geometry">
            <mxPoint x="70" y="519.66" as="sourcePoint" />
            <mxPoint x="230" y="519.66" as="targetPoint" />
          </mxGeometry>
        </mxCell>
        <mxCell id="jUOf76TEXTjD7ETVh94k-23" value="CU10: Historial medico paciente" style="ellipse;whiteSpace=wrap;html=1;" vertex="1" parent="jUOf76TEXTjD7ETVh94k-1">
          <mxGeometry x="210" y="580" width="90" height="60" as="geometry" />
        </mxCell>
        <mxCell id="jUOf76TEXTjD7ETVh94k-24" value="Use" style="endArrow=open;endSize=12;dashed=1;html=1;rounded=0;exitX=0.559;exitY=1.048;exitDx=0;exitDy=0;exitPerimeter=0;" edge="1" parent="jUOf76TEXTjD7ETVh94k-1" source="jUOf76TEXTjD7ETVh94k-21" target="jUOf76TEXTjD7ETVh94k-23">
          <mxGeometry width="160" relative="1" as="geometry">
            <mxPoint x="260" y="550" as="sourcePoint" />
            <mxPoint x="420" y="550" as="targetPoint" />
          </mxGeometry>
        </mxCell>
        <mxCell id="jUOf76TEXTjD7ETVh94k-27" value="CU12:Receta de medicamentos&lt;div&gt;&lt;br&gt;&lt;/div&gt;" style="ellipse;whiteSpace=wrap;html=1;" vertex="1" parent="jUOf76TEXTjD7ETVh94k-1">
          <mxGeometry x="620" y="353" width="110" height="47" as="geometry" />
        </mxCell>
        <mxCell id="jUOf76TEXTjD7ETVh94k-29" value="CU13:Autorizacion de medicamentos&amp;nbsp;" style="ellipse;whiteSpace=wrap;html=1;" vertex="1" parent="jUOf76TEXTjD7ETVh94k-1">
          <mxGeometry x="770" y="350" width="120" height="60" as="geometry" />
        </mxCell>
        <mxCell id="jUOf76TEXTjD7ETVh94k-30" value="Use" style="endArrow=open;endSize=12;dashed=1;html=1;rounded=0;" edge="1" parent="jUOf76TEXTjD7ETVh94k-1" source="jUOf76TEXTjD7ETVh94k-27" target="jUOf76TEXTjD7ETVh94k-29">
          <mxGeometry width="160" relative="1" as="geometry">
            <mxPoint x="690" y="440" as="sourcePoint" />
            <mxPoint x="850" y="440" as="targetPoint" />
          </mxGeometry>
        </mxCell>
      </root>
    </mxGraphModel>
  </diagram>
</mxfile>
